# AST/ASF file generated using VICON BodyLanguage
# -----------------------------------------------
:version 1.10
:name VICON
:units
  mass 1.0
  length 0.45
  angle deg
:documentation
   .ast/.asf automatically generated from VICON data using
   VICON BodyBuilder and BodyLanguage model FoxedUp or BRILLIANT.MOD
:root
   order TX TY TZ RX RY RZ
   axis XYZ
   position 0 0 0  
   orientation 0 0 0 
:bonedata
  begin
     id 1 
     name lhipjoint
     direction 0.570549 -0.739093 0.358072 
     length 2.41801 
     axis 0 0 0  XYZ
  end
  begin
     id 2 
     name lfemur
     direction 0.34202 -0.939693 0  
     length 7.44434  
     axis 0 0 20  XYZ
    dof rx ry rz
    limits (-160.0 20.0)
           (-70.0 70.0)
           (-60.0 70.0)
  end
  begin
     id 3 
     name ltibia
     direction 0.34202 -0.939693 0   
     length 7.60047   
     axis 0 0 20   XYZ
    dof rx
    limits (-10.0 170.0)
  end
  begin
     id 4 
     name lfoot
     direction 0.0909041 -0.249757 0.964032   
     length 2.03437   
     axis -90 7.62852e-016 20   XYZ
    dof rx rz
    limits (-45.0 90.0)
           (-70.0 20.0)
  end
  begin
     id 5 
     name ltoes
     direction 1.53547e-011 -4.2174e-011 1   
     length 1.02054   
     axis -90 7.62852e-016 20   XYZ
    dof rx
    limits (-90.0 20.0)
  end
  begin
     id 6 
     name rhipjoint
     direction -0.558096 -0.746754 0.361784   
     length 2.3932  
     axis 0 0 0  XYZ 
  end
  begin
     id 7 
     name rfemur
     direction -0.34202 -0.939693 0   
     length 7.3886   
     axis 0 0 -20   XYZ
    dof rx ry rz
    limits (-160.0 20.0)
           (-70.0 70.0)
           (-70.0 60.0)
  end
  begin
     id 8 
     name rtibia
     direction -0.34202 -0.939693 0   
     length 7.4839   
     axis 0 0 -20   XYZ
    dof rx
    limits (-10.0 170.0)
 end
 begin
     id 9 
     name rfoot
     direction -0.114619 -0.314914 0.942174   
     length 2.25127  
     axis -90 -7.62852e-016 -20   XYZ
    dof rx rz
    limits (-45.0 90.0)
           (-20.0 70.0)
  end
  begin
     id 10 
     name rtoes
     direction -1.53518e-011 -4.21881e-011 1   
     length 1.11821   
     axis -90 -7.62852e-016 -20   XYZ
    dof rx
    limits (-90.0 20.0)
  end
  begin
     id 11 
     name lowerback
     direction -0.00902269 0.996426 -0.0839821   
     length 2.25052   
     axis 0 0 0   XYZ
    dof rx ry rz
    limits (-20.0 45.0)
           (-30.0 30.0)
           (-30.0 30.0)
  end
  begin
     id 12 
     name upperback
     direction 0.0370973 0.999169 -0.0168941   
     length 2.24876   
     axis 0 0 0   XYZ
    dof rx ry rz
    limits (-20.0 45.0)
           (-30.0 30.0)
           (-30.0 30.0)
  end
  begin
     id 13 
     name thorax
     direction 0.0402726 0.998931 0.0227027   
     length 2.26408   
     axis 0 0 0   XYZ
    dof rx ry rz
    limits (-20.0 45.0)
           (-30.0 30.0)
           (-30.0 30.0)
  end
  begin
     id 14 
     name lowerneck
     direction -0.0733697 0.98508 0.155675   
     length 1.58204   
     axis 0 0 0   XYZ
    dof rx ry rz
    limits (-20.0 45.0)
           (-30.0 30.0)
           (-30.0 30.0)
  end
  begin
     id 15 
     name upperneck
     direction 0.0426554 0.993501 -0.105526   
     length 1.61222   
     axis 0 0 0   XYZ
    dof rx ry rz
    limits (-20.0 45.0)
           (-30.0 30.0)
           (-30.0 30.0)
  end
  begin
     id 16
     name head
     direction 0.020792 0.998384 -0.0528868  
     length 1.61527  
     axis 0 0 0   XYZ
    dof rx ry rz
    limits (-20.0 45.0)
           (-30.0 30.0)
           (-30.0 30.0)
  end
  begin
     id 17 
     name lclavicle
     direction 0.967109 0.155462 -0.201325  
     length 3.59357  
     axis 0 0 0   XYZ
    dof ry rz
    limits (-20.0 10.0)
           (0.0 20.0)
  end
  begin
     id 18 
     name lhumerus
     direction 1 -4.48968e-011 2.38195e-027   
     length 5.38154   
     axis 180 -30 -90   XYZ
    dof rx ry rz
    limits (-60.0 90.0)
           (-90.0 90.0)
           (-90.0 90.0)
  end
  begin
     id 19
     name lradius
     direction 1 -4.48961e-011 4.85371e-027   
     length 3.33312   
     axis 180 -30 -90   XYZ
    dof rx
    limits (-10.0 170.0)
  end
  begin
     id 20
     name lwrist
     direction 1 -4.48961e-011 4.76515e-027   
     length 1.66656   
     axis -3.27502e-015 90 90   XYZ
    dof ry
    limits (-180.0 0.0)
 end
  begin
     id 21 
     name lhand
     direction 1 -4.48951e-011 9.53074e-027   
     length 0.710789   
     axis -6.08098e-015 90 90   XYZ
    dof rx rz
    limits (-90.0 90.0)
           (-45.0 45.0)
  end
  begin
     id 22 
     name lfingers
     direction 1 -4.48953e-011 1.90613e-026   
     length 0.573057   
     axis -1.21619e-014 90 90   XYZ
    dof rx
    limits (0.0 90.0)
  end
  begin
     id 23
     name lthumb
     direction 0.707107 -6.34973e-011 0.707107   
     length 0.822798   
     axis -90 45 -9.86923e-015   XYZ
    dof rx rz
    limits (-45.0 45.0)
           (-45.0 45.0)
  end
  begin
     id 24 
     name rclavicle
     direction -0.9585 0.265289 -0.104398   
     length 3.42039  
     axis 0 0 0   XYZ 
    dof ry rz
    limits (-10.0 20.0)
           (-20.0 0.0)
  end
  begin
     id 25 
     name rhumerus
     direction -1 -4.48977e-011 2.21478e-027  
     length 5.16954   
     axis 180 30 90   XYZ
    dof rx ry rz
    limits (-90.0 60.0)
           (-90.0 90.0)
           (-90.0 90.0)
  end
  begin
     id 26 
     name rradius
     direction -1 -4.48967e-011 5.63677e-027   
     length 3.38287   
     axis 180 30 90   XYZ
    dof rx
    limits (-10.0 170.0)
  end
  begin
     id 27 
     name rwrist
     direction -1 -4.48967e-011 4.76501e-027   
     length 1.69144   
     axis -3.27502e-015 -90 -90   XYZ
    dof ry
    limits (-180.0 0.0)
  end
  begin
     id 28
     name rhand
     direction -1 -4.48902e-011 9.53292e-027   
     length 0.817967   
     axis -6.08098e-015 -90 -90   XYZ
    dof rx rz
    limits (-90.0 90.0)
           (-45.0 45.0)
  end
  begin
     id 29
     name rfingers
     direction -1 -4.49012e-011 1.90561e-026   
     length 0.659466   
     axis -1.21619e-014 -90 -90   XYZ
    dof rx
    limits (0.0 90.0)
  end
  begin
     id 30
     name rthumb
     direction -0.707107 -6.34944e-011 0.707107   
     length 0.946865   
     axis -90 -45 9.86923e-015   XYZ
    dof rx rz
    limits (-45.0 45.0)
           (-45.0 45.0)
  end
:hierarchy
  begin
    root lhipjoint rhipjoint lowerback
    lhipjoint lfemur
    lfemur ltibia
    ltibia lfoot
    lfoot ltoes
    rhipjoint rfemur
    rfemur rtibia
    rtibia rfoot
    rfoot rtoes
    lowerback upperback
    upperback thorax
    thorax lowerneck lclavicle rclavicle
    lowerneck upperneck
    upperneck head
    lclavicle lhumerus
    lhumerus lradius
    lradius lwrist
    lwrist lhand lthumb
    lhand lfingers
    rclavicle rhumerus
    rhumerus rradius
    rradius rwrist
    rwrist rhand rthumb
    rhand rfingers
  end

#!OML:ASF F:\twosubjects\two\wednesday\Session 1\Justin1.ASF
:FULLY-SPECIFIED
:DEGREES
17
root 15.7014 18.1833 23.2359 -177.52 4.68051 -183.266
lowerback 2.94174 -0.360822 -4.17997
upperback 3.07212 -0.433175 1.03238
thorax 1.55613 -0.253689 3.41588
lowerneck -7.88889 -1.36331 -10.7446
upperneck 33.2002 4.73977 -1.33616
head 12.2344 1.95261 2.23322
rclavicle 1.2921e-014 -7.15625e-015
rhumerus -25.5767 -4.19846 -80.4419
rradius 41.2396
rwrist -16.0516
rhand -12.2588 20.0799
rfingers 7.12502
rthumb 13.8076 -9.44184
lclavicle 1.2921e-014 -7.15625e-015
lhumerus -56.0899 -47.8936 96.4607
lradius 50.5184
lwrist 0.815913
lhand -0.071104 35.4605
lfingers 7.12502
lthumb 25.5223 63.771
rfemur -21.173 -3.76418 16.6112
rtibia 61.8409
rfoot -11.3458 -9.32695
rtoes 10.4888
lfemur -11.3424 4.98795 -25.9923
ltibia 27.7581
lfoot -14.4591 0.372338
ltoes -9.57556
18
root 15.6836 18.1662 23.1036 -177.542 4.54549 -183.461
lowerback 2.50907 -0.525926 -4.31903
upperback 3.85185 -0.572483 1.0126
thorax 2.62284 -0.343365 3.47085
lowerneck -9.60161 -1.22228 -10.7406
upperneck 33.0363 4.89327 -1.29707
head 12.5055 1.91196 2.2807
rclavicle -1.82882e-014 8.74653e-015
rhumerus -24.3985 -4.84485 -80.4553
rradius 40.5218
rwrist -15.9405
rhand -11.9133 19.8331
rfingers 7.12502
rthumb 14.1406 -9.66565
lclavicle -1.82882e-014 8.74653e-015
lhumerus -53.62 -48.2385 95.0827
lradius 49.9775
lwrist 0.940124
lhand -1.12452 34.7201
lfingers 7.12502
lthumb 24.5129 63.1712
rfemur -22.1916 -3.89771 16.5973
rtibia 61.2893
rfoot -12.1989 -8.95638
rtoes 9.32454
lfemur -10.8479 4.7498 -26.2679
ltibia 27.8283
lfoot -15.0784 0.512728
ltoes -9.33753
19
root 15.6611 18.1473 22.9711 -177.477 4.27885 -183.453
lowerback 1.95909 -0.865744 -4.13713
upperback 4.20589 -0.976251 0.999024
thorax 3.33406 -0.553582 3.34537
lowerneck -9.93317 -1.03514 -10.8977
upperneck 32.7464 5.07511 -1.21572
head 12.4356 1.95297 2.35196
rclavicle -1.37161e-014 7.95139e-015
rhumerus -24.0455 -4.88962 -80.6801
rradius 39.7989
rwrist -15.6654
rhand -11.9142 19.8085
rfingers 7.12502
rthumb 14.1397 -9.69033
lclavicle -1.37161e-014 7.95139e-015
lhumerus -52.3343 -47.6229 94.0694
lradius 49.729
lwrist 0.685491
lhand 1.50734 35.023
lfingers 7.12502
lthumb 27.0333 63.1082
rfemur -23.2145 -4.14892 16.7691
rtibia 60.6015
rfoot -12.738 -9.05666
rtoes 7.20122
lfemur -10.4597 4.62299 -26.3669
ltibia 27.9072
lfoot -15.4032 0.622817
ltoes -10.5983
20
root 15.6426 18.137 22.8395 -177.28 4.09253 -183.514
lowerback 3.64916 -1.006 -4.60725
upperback 2.74305 -1.35004 1.39966
thorax 0.925928 -0.706219 4.06597
lowerneck -9.42338 -0.998783 -10.9738
upperneck 33.8169 5.68205 -1.59479
head 12.7862 2.23869 2.34088
rclavicle 8.34896e-015 1.19271e-014
rhumerus -26.6305 -3.96289 -80.1449
rradius 39.5045
rwrist -15.1882
rhand -12.3164 19.735
rfingers 7.12502
rthumb 13.752 -9.79055
lclavicle 8.34896e-015 1.19271e-014
lhumerus -54.8904 -46.1085 96.2563
lradius 49.8382
lwrist 0.281587
lhand 3.4123 35.6619
lfingers 7.12502
lthumb 28.8545 63.4506
rfemur -24.3014 -4.24596 16.885
rtibia 59.7469
rfoot -13.1742 -9.23634
rtoes 7.41978
lfemur -10.2111 4.50511 -26.5571
ltibia 27.9062
lfoot -15.6938 0.77647
ltoes -11.0122
21
root 15.6289 18.116 22.7077 -177.244 4.27084 -183.664
lowerback 2.27787 -0.990236 -3.9988
upperback 3.57082 -1.20435 0.709719
thorax 2.50249 -0.649216 2.97452
lowerneck -9.52896 -1.01823 -10.3346
upperneck 33.2611 5.10551 -1.23344
head 12.5694 2.05947 2.26836
rclavicle 8.44835e-015 1.55052e-014
rhumerus -26.103 -5.42508 -81.0689
rradius 38.9302
rwrist -14.428
rhand -12.1434 19.4849
rfingers 7.12502
rthumb 13.9188 -10.0292
lclavicle 8.44835e-015 1.55052e-014
lhumerus -53.1713 -47.2389 94.3949
lradius 49.86
lwrist 0.688393
lhand 3.78209 35.9872
lfingers 7.12502
lthumb 29.2076 63.7151
rfemur -25.2291 -3.95251 16.8944
rtibia 58.7627
rfoot -13.6236 -9.3358
rtoes 7.3259
lfemur -9.73365 4.73846 -26.7939
ltibia 27.8133
lfoot -16.0669 0.587981
ltoes -9.61233
22
root 15.6105 18.1053 22.5702 -177.459 4.34338 -183.865
lowerback 3.79286 -0.948816 -4.68897
upperback 2.70952 -1.28416 1.10286
thorax 0.79861 -0.668368 3.80597
lowerneck -9.28871 -1.30022 -10.7778
upperneck 34.1201 5.21241 -1.50677
head 12.9082 2.06431 2.28966
rclavicle -7.95139e-015 -1.59028e-014
rhumerus -28.0125 -5.04602 -80.2466
rradius 38.5518
rwrist -14.1322
rhand -11.9726 19.8237
rfingers 7.12502
rthumb 14.0834 -9.67911
lclavicle -7.95139e-015 -1.59028e-014
lhumerus -54.7459 -46.3827 96.2135
lradius 49.7326
lwrist 0.174822
lhand 3.92983 36.0021
lfingers 7.12502
lthumb 29.3487 63.7053
rfemur -25.8059 -3.88449 16.8053
rtibia 57.6161
rfoot -13.9594 -9.54099
rtoes 5.84625
lfemur -8.85921 4.4637 -27.0883
ltibia 27.6062
lfoot -16.3431 0.609078
ltoes -7.76363
23
root 15.593 18.106 22.432 -177.468 4.18513 -183.983
lowerback 3.96092 -1.15907 -4.87194
upperback 2.66517 -1.57877 1.22526
thorax 0.698553 -0.815963 4.04802
lowerneck -9.40273 -1.28691 -11.14
upperneck 34.1588 5.326 -1.48885
head 12.9441 2.06404 2.3756
rclavicle -5.96354e-015 5.56597e-015
rhumerus -28.4081 -5.09929 -79.989
rradius 37.8137
rwrist -13.4802
rhand -12.103 20.3401
rfingers 7.12502
rthumb 13.9578 -9.1714
lclavicle -5.96354e-015 5.56597e-015
lhumerus -54.4833 -45.7597 96.2413
lradius 49.6741
lwrist -0.20001
lhand 3.86285 36.333
lfingers 7.12502
lthumb 29.2847 64.0475
rfemur -26.5481 -4.07082 16.8761
rtibia 56.3662
rfoot -14.1693 -10.2525
rtoes 4.45814
lfemur -8.17596 3.96034 -27.2861
ltibia 27.3376
lfoot -16.5909 0.907296
ltoes -5.2617
24
root 15.5838 18.0942 22.3 -177.34 4.25938 -184.113
lowerback 2.63406 -1.34385 -5.00172
upperback 3.46762 -1.71191 1.16965
thorax 2.29069 -0.928932 4.02281
lowerneck -9.59643 -1.04752 -11.0451
upperneck 33.3058 5.3623 -1.52249
head 12.6098 2.05212 2.31462
rclavicle 3.26007e-014 1.82882e-014
rhumerus -27.6124 -5.36491 -80.2196
rradius 37.2995
rwrist -13.4771
rhand -11.6371 19.9681
rfingers 7.12502
rthumb 14.4067 -9.51188
lclavicle 3.26007e-014 1.82882e-014
lhumerus -52.3407 -45.6304 94.7121
lradius 49.4463
lwrist -0.415727
lhand 2.7594 36.3103
lfingers 7.12502
lthumb 28.2306 64.2038
rfemur -27.4076 -3.91773 16.9652
rtibia 55.0009
rfoot -14.5024 -10.8676
rtoes 4.266
lfemur -7.6613 4.07362 -27.4656
ltibia 26.9775
lfoot -16.6882 0.982114
ltoes -3.47872
25
root 15.5741 18.0719 22.1705 -177.382 4.3326 -184.521
lowerback 2.58924 -1.34682 -5.06091
upperback 3.52397 -1.70176 0.743578
thorax 2.36101 -0.919947 3.61235
lowerneck -9.63022 -1.02272 -10.625
upperneck 33.3522 5.2197 -1.35395
head 12.6314 2.04781 2.28969
rclavicle 2.56432e-014 -3.97569e-016
rhumerus -28.1697 -6.18622 -80.5683
rradius 36.9536
rwrist -13.4889
rhand -11.1402 19.4146
rfingers 7.12502
rthumb 14.8854 -10.0306
lclavicle 2.56432e-014 -3.97569e-016
lhumerus -51.7787 -45.755 93.8019
lradius 49.3214
lwrist -0.981027
lhand 1.74128 35.5509
lfingers 7.12502
lthumb 27.2571 63.6012
rfemur -28.044 -3.80901 16.7017
rtibia 53.5145
rfoot -14.5688 -11.4456
rtoes 4.35803
lfemur -6.95855 4.09577 -27.9759
ltibia 26.5665
lfoot -16.9847 0.6647
ltoes -3.94677
26
root 15.5602 18.0542 22.0358 -177.405 4.1651 -184.835
lowerback 2.47424 -1.49033 -5.04081
upperback 3.7037 -1.86262 0.442404
thorax 2.61723 -0.998892 3.28333
lowerneck -10.0125 -1.04692 -10.5698
upperneck 33.4138 5.05955 -1.06829
head 12.7279 1.98401 2.37451
rclavicle 5.66536e-015 -6.75868e-015
rhumerus -28.3092 -7.05879 -80.7627
rradius 36.341
rwrist -13.1767
rhand -11.0689 19.0697
rfingers 7.12502
rthumb 14.9541 -10.3705
lclavicle 5.66536e-015 -6.75868e-015
lhumerus -51.0193 -45.9265 93.0745
lradius 49.1155
lwrist -1.26431
lhand 0.761176 34.8574
lfingers 7.12502
lthumb 26.3192 63.0514
rfemur -28.5774 -3.99163 16.5446
rtibia 51.8659
rfoot -14.4073 -12.6567
rtoes 3.42327
lfemur -6.21556 3.97459 -28.3856
ltibia 26.1292
lfoot -17.5302 0.607622
ltoes -7.2874
27
root 15.5505 18.0521 21.9007 -177.226 4.07008 -184.886
lowerback 2.2305 -1.61876 -4.87985
upperback 3.85234 -2.00343 0.269203
thorax 2.90882 -1.06776 3.00389
lowerneck -10.5417 -0.987833 -10.329
upperneck 33.3613 4.98306 -0.892307
head 12.8079 1.95864 2.39422
rclavicle -1.02374e-014 -1.98785e-015
rhumerus -28.3817 -7.71721 -80.9486
rradius 35.6858
rwrist -12.9441
rhand -11.1845 18.9047
rfingers 7.12502
rthumb 14.8428 -10.5436
lclavicle -1.02374e-014 -1.98785e-015
lhumerus -50.5312 -46.4231 92.7987
lradius 49.0013
lwrist -0.727057
lhand -0.632593 34.3956
lfingers 7.12502
lthumb 24.9843 62.7821
rfemur -29.2306 -3.97555 16.6913
rtibia 50.0114
rfoot -14.6699 -13.8822
rtoes 3.45749
lfemur -5.67507 3.92892 -28.4905
ltibia 25.6353
lfoot -17.7777 1.24115
ltoes -10.7312
28
root 15.5397 18.0566 21.7684 -177.025 4.1749 -184.871
lowerback 2.09066 -1.64214 -4.68622
upperback 3.87803 -2.02234 0.13238
thorax 3.00204 -1.07145 2.74948
lowerneck -10.8072 -0.944386 -10.2068
upperneck 33.3194 4.86597 -0.587778
head 12.833 1.93364 2.47476
rclavicle 6.06293e-015 -7.95139e-016
rhumerus -28.7994 -8.38226 -81.0226
rradius 35.105
rwrist -12.2558
rhand -12.1793 19.0425
rfingers 7.12502
rthumb 13.8842 -10.4741
lclavicle 6.06293e-015 -7.95139e-016
lhumerus -50.1673 -46.4998 92.3119
lradius 49.2226
lwrist -0.533659
lhand -0.813515 34.237
lfingers 7.12502
lthumb 24.8109 62.6474
rfemur -29.8759 -3.80609 16.872
rtibia 47.9728
rfoot -14.5991 -14.4296
rtoes 4.9908
lfemur -5.18822 4.01016 -28.5159
ltibia 25.0895
lfoot -17.8461 1.51125
ltoes -10.949
29
root 15.5292 18.0555 21.6327 -176.874 4.19585 -184.559
lowerback 1.92411 -1.73578 -4.25554
upperback 3.89421 -2.14333 0.177815
thorax 3.10489 -1.12408 2.54858
lowerneck -10.6751 -0.855745 -10.177
upperneck 33.0355 4.8905 -0.595912
head 12.6812 1.9463 2.45426
rclavicle -3.22031e-014 8.74653e-015
rhumerus -29.3947 -8.88075 -80.9267
rradius 34.6792
rwrist -11.5233
rhand -13.4161 19.1686
rfingers 7.12502
rthumb 12.6921 -10.4257
lclavicle -3.22031e-014 8.74653e-015
lhumerus -49.6107 -45.9238 91.6726
lradius 49.294
lwrist -1.09838
lhand -0.220084 34.7063
lfingers 7.12502
lthumb 25.3796 63.0372
rfemur -30.3139 -3.7022 17.3474
rtibia 45.7684
rfoot -14.0964 -14.641
rtoes 6.9421
lfemur -4.53641 4.32819 -28.1763
ltibia 24.4974
lfoot -18.0351 1.27423
ltoes -10.6911
30
root 15.5302 18.0543 21.4964 -176.73 4.11223 -184.282
lowerback 1.71718 -1.80876 -4.01494
upperback 3.9135 -2.23592 0.228695
thorax 3.23954 -1.16827 2.45816
lowerneck -10.484 -0.808383 -9.90132
upperneck 32.8082 4.88302 -0.793823
head 12.5546 1.95697 2.31785
rclavicle 4.67144e-015 -3.57812e-015
rhumerus -30.0236 -9.64733 -80.7201
rradius 34.3326
rwrist -11.5678
rhand -13.1312 19.1798
rfingers 7.12502
rthumb 12.9667 -10.3972
lclavicle 4.67144e-015 -3.57812e-015
lhumerus -49.3146 -45.9907 91.5537
lradius 49.1395
lwrist -1.29127
lhand -0.524544 35.172
lfingers 7.12502
lthumb 25.0879 63.544
rfemur -30.6201 -3.48608 17.7945
rtibia 43.4665
rfoot -13.8678 -15.0387
rtoes 7.79183
lfemur -3.79046 4.61165 -27.8136
ltibia 23.8263
lfoot -18.2048 1.10398
ltoes -11.9001
31
root 15.5308 18.0566 21.3643 -176.625 4.05045 -184.385
lowerback 1.66276 -1.79634 -4.15331
upperback 3.83113 -2.22208 0.152468
thorax 3.18652 -1.16431 2.4568
lowerneck -10.1559 -0.855989 -9.72771
upperneck 32.7791 4.7194 -0.721955
head 12.4779 1.92767 2.28769
rclavicle 4.72114e-014 -8.34896e-015
rhumerus -30.8773 -10.5022 -80.4102
rradius 34.0663
rwrist -11.9778
rhand -12.2578 19.1364
rfingers 7.12502
rthumb 13.8086 -10.3853
lclavicle 4.72114e-014 -8.34896e-015
lhumerus -49.5268 -46.6807 91.8739
lradius 49.1617
lwrist -1.03251
lhand -0.839305 35.1719
lfingers 7.12502
lthumb 24.7862 63.5857
rfemur -30.8927 -3.34311 17.821
rtibia 41.1092
rfoot -13.009 -15.2291
rtoes 7.48167
lfemur -3.02745 4.38454 -27.8875
ltibia 23.0583
lfoot -18.2496 0.888836
ltoes -12.209
